<?xml version="1.0" encoding="utf-8"?>
<!-- Generator: Adobe Illustrator 27.6.1, SVG Export Plug-In . SVG Version: 6.00 Build 0)  -->
<svg version="1.1" id="Layer_1" xmlns="http://www.w3.org/2000/svg" xmlns:xlink="http://www.w3.org/1999/xlink" x="0px" y="0px"
	 viewBox="0 0 64 64" style="enable-background:new 0 0 64 64;" xml:space="preserve">
<path d="M37,18.3v31c0,2-2.2,3.4-4,2.4l-18.2-9.4h-8c-1.5,0-2.7-1.2-2.7-2.7V28c0-1.5,1.2-2.7,2.7-2.7h8l18.2-9.4
	C34.9,14.9,37,16.2,37,18.3z"/>
<path fill="none" class="stroke" d="M40.9,17.4c9.3,9.9,8.6,20.6,0,32"/>
<path fill="none" class="stroke" d="M45,15.1C55.8,26.7,55,39.2,45,52.5"/>
<path fill="none" class="stroke" d="M48.9,12.3c12.5,13.3,11.6,27.8,0,43"/>
</svg>
