<?xml version="1.0" encoding="utf-8"?>
<!-- Generator: Adobe Illustrator 27.6.1, SVG Export Plug-In . SVG Version: 6.00 Build 0)  -->
<svg version="1.1" id="Layer_1" xmlns="http://www.w3.org/2000/svg" xmlns:xlink="http://www.w3.org/1999/xlink" x="0px" y="0px"
	 viewBox="0 0 64 64" style="enable-background:new 0 0 64 64;" xml:space="preserve">
<style type="text/css">
	.st0{display:none;}
</style>
<path class="st0" d="M47.9,18.3v31c0,2-2.2,3.4-4,2.4l-18.2-9.4h-8c-1.5,0-2.7-1.2-2.7-2.7V28c0-1.5,1.2-2.7,2.7-2.7h8L44,15.9
	C45.8,14.9,47.9,16.2,47.9,18.3z"/>
<path d="M22.8,42.3h-5.1c-1.5,0-2.7-1.2-2.7-2.7V28c0-1.5,1.2-2.7,2.7-2.7h8L44,15.9c1.4-0.7,2.9-0.1,3.6,1.1"/>
<path d="M47.9,24v25.3c0,2-2.2,3.4-4,2.4l-15.5-8"/>
</svg>
