<?xml version="1.0" encoding="utf-8"?>
<!-- Generator: Adobe Illustrator 27.6.1, SVG Export Plug-In . SVG Version: 6.00 Build 0)  -->
<svg version="1.1" id="Layer_1" xmlns="http://www.w3.org/2000/svg" xmlns:xlink="http://www.w3.org/1999/xlink" x="0px" y="0px"
	 viewBox="0 0 128 128" style="enable-background:new 0 0 128 128;" xml:space="preserve">

<g>
	<g>
		<g>
			<path class="stroke" fill="none" d="M96.1,39.1c16.3,16.3,16.3,42.7,0,59c-11.4,11.4-27.6,14.8-42,10.3"/>
			<g>
				<path d="M37.1,98.1c9.9,1.6,22.9,2.3,32.3,0.4l-12.7,10.8l-2.9,16.4C50.6,116.8,43.5,105.8,37.1,98.1z"/>
			</g>
		</g>
	</g>
	<g>
		<g>
			<path class="stroke" fill="none" d="M31.9,88.9c-16.3-16.3-16.3-42.7,0-59c11.4-11.4,27.6-14.8,42-10.3"/>
			<g>
				<path d="M90.9,29.9c-9.9-1.6-22.9-2.3-32.3-0.4l12.7-10.8l2.9-16.4C77.4,11.2,84.5,22.2,90.9,29.9z"/>
			</g>
		</g>
	</g>
</g>
</svg>
